<svg width="35" height="35" viewBox="0 0 35 35" fill="none" xmlns="http://www.w3.org/2000/svg">
<path fill-rule="evenodd" clip-rule="evenodd" d="M17.5833 3C19.4984 2.99999 21.3948 3.37719 23.1641 4.11007C24.9335 4.84294 26.5411 5.91714 27.8953 7.27133C29.2495 8.62551 30.3237 10.2332 31.0566 12.0025C31.7895 13.7718 32.1667 15.6682 32.1667 17.5833C32.1667 25.6375 25.6375 32.1667 17.5833 32.1667C9.52921 32.1667 3 25.6375 3 17.5833C3 9.52921 9.52921 3 17.5833 3ZM19.0417 19.0417H16.125C12.5146 19.0417 9.41498 21.2283 8.07808 24.3497C10.1934 27.3158 13.6625 29.25 17.5833 29.25C21.5041 29.25 24.9732 27.3158 27.0886 24.3495C25.7517 21.2283 22.6521 19.0417 19.0417 19.0417ZM17.5833 7.375C15.1671 7.375 13.2083 9.33377 13.2083 11.75C13.2083 14.1662 15.1671 16.125 17.5833 16.125C19.9995 16.125 21.9583 14.1662 21.9583 11.75C21.9583 9.33377 19.9996 7.375 17.5833 7.375Z" fill="#3E6137"/>
</svg>
