<svg width="24" height="24" viewBox="0 0 24 24" fill="none" xmlns="http://www.w3.org/2000/svg">
<path d="M20 17H22V22H20V17ZM17 14.5H19V22H17V14.5ZM14 16.5H16V22H14V16.5ZM11 12.5H13V22H11V12.5ZM8 14H10V22H8V14ZM5 12H7V22H5V12ZM2 9.5H4V22H2V9.5Z" fill="#F44336"/>
<path d="M17 6.5998L15 8.5998L9.99999 3.5998L7.49999 6.0998L3.69999 2.2998L2.29999 3.6998L7.49999 8.8998L9.99999 6.39981L15 11.3998L17 9.3998L20.05 12.4498L21.45 11.0498L17 6.5998Z" fill="#D32F2F"/>
<path d="M22 13H17.5L22 8.5V13Z" fill="#D32F2F"/>
</svg>
