<svg width="30" height="30" viewBox="0 0 30 30" fill="none" xmlns="http://www.w3.org/2000/svg">
<path d="M6.25 23.75V12.885C6.25 12.565 6.32167 12.2621 6.465 11.9762C6.60833 11.6904 6.80583 11.455 7.0575 11.27L13.7888 6.17249C14.1413 5.90332 14.5437 5.76874 14.9963 5.76874C15.4487 5.76874 15.8538 5.90332 16.2113 6.17249L22.9425 11.2687C23.195 11.4537 23.3925 11.6896 23.535 11.9762C23.6783 12.2621 23.75 12.565 23.75 12.885V23.75C23.75 24.085 23.6254 24.3771 23.3763 24.6262C23.1271 24.8754 22.835 25 22.5 25H18.27C17.9833 25 17.7433 24.9033 17.55 24.71C17.3567 24.5158 17.26 24.2758 17.26 23.99V18.0287C17.26 17.7429 17.1633 17.5033 16.97 17.31C16.7758 17.1158 16.5358 17.0187 16.25 17.0187H13.75C13.4642 17.0187 13.2246 17.1158 13.0312 17.31C12.8371 17.5033 12.74 17.7429 12.74 18.0287V23.9912C12.74 24.2771 12.6433 24.5167 12.45 24.71C12.2567 24.9033 12.0171 25 11.7313 25H7.5C7.165 25 6.87292 24.8754 6.62375 24.6262C6.37458 24.3771 6.25 24.085 6.25 23.75Z" fill="#3E6137"/>
</svg>
