<svg width="28" height="29" viewBox="0 0 28 29" fill="none" xmlns="http://www.w3.org/2000/svg">
<rect width="28" height="29" rx="5" fill="#C4D9B9"/>
<path d="M21.3333 16.6043C21.3333 16.422 21.2609 16.2471 21.132 16.1182C21.003 15.9893 20.8282 15.9168 20.6458 15.9168H17.8958C17.7135 15.9168 17.5386 15.9893 17.4097 16.1182C17.2808 16.2471 17.2083 16.422 17.2083 16.6043V22.7918H15.8333V7.896C15.8333 7.22866 15.8315 6.796 15.7893 6.47883C15.749 6.18091 15.6839 6.08741 15.6317 6.03516C15.5794 5.98291 15.4859 5.91783 15.188 5.8775C14.8699 5.83533 14.4382 5.8335 13.7708 5.8335C13.1035 5.8335 12.6708 5.83533 12.3537 5.8775C12.0557 5.91783 11.9622 5.98291 11.91 6.03516C11.8577 6.08741 11.7927 6.18091 11.7523 6.47883C11.7102 6.79691 11.7083 7.22866 11.7083 7.896V22.7918H10.3333V12.021C10.3333 11.8387 10.2609 11.6638 10.132 11.5349C10.003 11.4059 9.82816 11.3335 9.64582 11.3335H6.89582C6.71349 11.3335 6.53862 11.4059 6.40969 11.5349C6.28076 11.6638 6.20832 11.8387 6.20832 12.021V22.7918H4.60416C4.42182 22.7918 4.24695 22.8643 4.11802 22.9932C3.98909 23.1221 3.91666 23.297 3.91666 23.4793C3.91666 23.6617 3.98909 23.8365 4.11802 23.9655C4.24695 24.0944 4.42182 24.1668 4.60416 24.1668H22.9375C23.1198 24.1668 23.2947 24.0944 23.4236 23.9655C23.5526 23.8365 23.625 23.6617 23.625 23.4793C23.625 23.297 23.5526 23.1221 23.4236 22.9932C23.2947 22.8643 23.1198 22.7918 22.9375 22.7918H21.3333V16.6043Z" fill="black"/>
</svg>
