<svg width="24" height="24" viewBox="0 0 24 24" fill="none" xmlns="http://www.w3.org/2000/svg">
<path d="M4.66602 19.258C4.57202 19.1646 4.52502 19.0486 4.52502 18.91C4.52502 18.7713 4.57169 18.658 4.66502 18.57L6.71402 16.521C6.18069 15.9016 5.76169 15.2 5.45702 14.416C5.15236 13.632 5.00002 12.801 5.00002 11.923C5.00002 9.96897 5.67802 8.31397 7.03402 6.95797C8.39136 5.60131 10.0467 4.92297 12 4.92297H19V11.923C19 13.877 18.322 15.5323 16.966 16.889C15.6087 18.245 13.9534 18.923 12 18.923C11.122 18.923 10.2954 18.7706 9.52002 18.466C8.74469 18.1613 8.04702 17.7426 7.42702 17.21L5.35402 19.258C5.26469 19.3513 5.15102 19.398 5.01302 19.398C4.87502 19.398 4.76002 19.3513 4.66602 19.258ZM8.73502 15.186C8.82836 15.2893 8.94336 15.339 9.08002 15.335C9.21669 15.331 9.33302 15.282 9.42902 15.188L13.354 11.283C13.464 11.1723 13.519 11.0533 13.519 10.926C13.519 10.7986 13.4657 10.6816 13.359 10.575C13.2624 10.4776 13.145 10.429 13.007 10.429C12.8684 10.429 12.7547 10.4756 12.666 10.569L8.73502 14.5C8.64169 14.5906 8.59502 14.7036 8.59502 14.839C8.59502 14.9743 8.64169 15.09 8.73502 15.186Z" fill="#3E6137"/>
</svg>
