<svg width="22" height="22" viewBox="0 0 22 22" fill="none" xmlns="http://www.w3.org/2000/svg">
<path d="M15.8125 15.125C15.8125 15.0028 15.7667 14.8958 15.675 14.8042C15.5833 14.7125 15.4764 14.6667 15.3542 14.6667C15.2319 14.6667 15.125 14.7125 15.0333 14.8042C14.9417 14.8958 14.8958 15.0028 14.8958 15.125V17.875C14.8958 17.9972 14.9417 18.1042 15.0333 18.1958C15.125 18.2875 15.2319 18.3333 15.3542 18.3333C15.4764 18.3333 15.5833 18.2875 15.675 18.1958C15.7667 18.1042 15.8125 17.9972 15.8125 17.875V15.125ZM17.1875 15.125V17.875C17.1875 17.9972 17.2333 18.1042 17.325 18.1958C17.4167 18.2875 17.5236 18.3333 17.6458 18.3333C17.7681 18.3333 17.875 18.2875 17.9667 18.1958C18.0583 18.1042 18.1042 17.9972 18.1042 17.875V15.125C18.1042 15.0028 18.0583 14.8958 17.9667 14.8042C17.875 14.7125 17.7681 14.6667 17.6458 14.6667C17.5236 14.6667 17.4167 14.7125 17.325 14.8042C17.2333 14.8958 17.1875 15.0028 17.1875 15.125ZM15.5833 8.25C15.8431 8.25 16.0609 8.162 16.2369 7.986C16.4129 7.81 16.5006 7.59244 16.5 7.33333C16.4994 7.07422 16.4114 6.85667 16.236 6.68067C16.0606 6.50467 15.8431 6.41667 15.5833 6.41667H6.41667C6.15694 6.41667 5.93939 6.50467 5.764 6.68067C5.58861 6.85667 5.50061 7.07422 5.5 7.33333C5.49939 7.59244 5.58739 7.81031 5.764 7.98692C5.94061 8.16353 6.15817 8.25122 6.41667 8.25H15.5833ZM16.5 21.0833C15.2319 21.0833 14.1512 20.6363 13.2577 19.7423C12.3643 18.8482 11.9173 17.7674 11.9167 16.5C11.9161 15.2326 12.3631 14.1518 13.2577 13.2578C14.1524 12.3637 15.2332 11.9167 16.5 11.9167C17.7668 11.9167 18.8479 12.3637 19.7432 13.2578C20.6384 14.1518 21.0852 15.2326 21.0833 16.5C21.0815 17.7674 20.6345 18.8485 19.7423 19.7432C18.85 20.6378 17.7693 21.0846 16.5 21.0833ZM2.75 20.0521V4.58333C2.75 4.07917 2.92967 3.64772 3.289 3.289C3.64833 2.93028 4.07978 2.75061 4.58333 2.75H17.4167C17.9208 2.75 18.3526 2.92967 18.7119 3.289C19.0712 3.64833 19.2506 4.07978 19.25 4.58333V9.625C19.25 9.88472 19.1431 10.0949 18.9292 10.2557C18.7153 10.4164 18.4785 10.4583 18.2187 10.3812C17.791 10.2743 17.3556 10.1979 16.9125 10.1521C16.4694 10.1062 16.0264 10.0833 15.5833 10.0833H6.41667C6.15694 10.0833 5.93939 10.1713 5.764 10.3473C5.58861 10.5233 5.50061 10.7409 5.5 11C5.49939 11.2591 5.58739 11.477 5.764 11.6536C5.94061 11.8302 6.15817 11.9179 6.41667 11.9167H12.0083C11.7486 12.1764 11.5081 12.459 11.2869 12.7646C11.0657 13.0701 10.8707 13.3986 10.7021 13.75H6.41667C6.15694 13.75 5.93939 13.838 5.764 14.014C5.58861 14.19 5.50061 14.4076 5.5 14.6667C5.49939 14.9258 5.58739 15.1436 5.764 15.3202C5.94061 15.4969 6.15817 15.5846 6.41667 15.5833H10.1521C10.1215 15.7361 10.1026 15.8852 10.0952 16.0307C10.0879 16.1761 10.0839 16.3326 10.0833 16.5C10.0833 16.8972 10.1215 17.2868 10.1979 17.6687C10.2743 18.0507 10.3736 18.4326 10.4958 18.8146C10.5722 18.9826 10.5417 19.1165 10.4042 19.2161C10.2667 19.3157 10.1368 19.3041 10.0146 19.1812L9.94583 19.1125C9.85417 19.0208 9.74722 18.975 9.625 18.975C9.50278 18.975 9.39583 19.0208 9.30417 19.1125L8.57083 19.8458C8.47917 19.9375 8.37222 19.9833 8.25 19.9833C8.12778 19.9833 8.02083 19.9375 7.92917 19.8458L7.19583 19.1125C7.10417 19.0208 6.99722 18.975 6.875 18.975C6.75278 18.975 6.64583 19.0208 6.55417 19.1125L5.82083 19.8458C5.72917 19.9375 5.62222 19.9833 5.5 19.9833C5.37778 19.9833 5.27083 19.9375 5.17917 19.8458L4.44583 19.1125C4.35417 19.0208 4.24722 18.975 4.125 18.975C4.00278 18.975 3.89583 19.0208 3.80417 19.1125L3.07083 19.8458L2.75 20.0521Z" fill="#3E6137"/>
</svg>
