<svg width="742" height="80" viewBox="0 0 742 80" fill="none" xmlns="http://www.w3.org/2000/svg">
<circle cx="702" cy="40" r="37.5" stroke="#C6CDC3" stroke-width="5"/>
<path d="M694.65 51.5573L702 47.2031L709.35 51.6146L707.425 43.3646L713.9 37.8646L705.383 37.1198L702 29.3281L698.617 37.0625L690.1 37.8073L696.575 43.3646L694.65 51.5573ZM702 52.5885L692.317 58.3177C691.889 58.585 691.442 58.6996 690.975 58.6614C690.508 58.6232 690.1 58.4705 689.75 58.2031C689.4 57.9357 689.128 57.6019 688.933 57.2016C688.739 56.8014 688.7 56.3522 688.817 55.8541L691.383 45.026L682.808 37.75C682.419 37.4062 682.177 37.0144 682.08 36.5744C681.984 36.1344 682.013 35.7051 682.167 35.2864C682.321 34.8678 682.554 34.5241 682.867 34.2552C683.179 33.9863 683.607 33.8144 684.15 33.7396L695.467 32.7656L699.842 22.5677C700.036 22.1094 700.338 21.7656 700.747 21.5364C701.156 21.3073 701.574 21.1927 702 21.1927C702.426 21.1927 702.844 21.3073 703.253 21.5364C703.662 21.7656 703.964 22.1094 704.158 22.5677L708.533 32.7656L719.85 33.7396C720.394 33.816 720.822 33.9878 721.133 34.2552C721.444 34.5225 721.678 34.8663 721.833 35.2864C721.989 35.7066 722.018 36.1366 721.922 36.5766C721.826 37.0166 721.582 37.4078 721.192 37.75L712.617 45.026L715.183 55.8541C715.3 56.3507 715.261 56.7998 715.067 57.2016C714.872 57.6035 714.6 57.9373 714.25 58.2031C713.9 58.4689 713.492 58.6217 713.025 58.6614C712.558 58.7012 712.111 58.5866 711.683 58.3177L702 52.5885Z" fill="#C6CDC3"/>
<path d="M520 40H662" stroke="#C6CDC3" stroke-width="5" stroke-linecap="round"/>
<circle cx="480" cy="40" r="37.5" stroke="#C6CDC3" stroke-width="5"/>
<path fill-rule="evenodd" clip-rule="evenodd" d="M461.982 28.14C462.15 27.8917 462.376 27.6883 462.641 27.5477C462.905 27.4071 463.2 27.3335 463.5 27.3333H483.667C484.033 27.3335 484.391 27.4435 484.694 27.6491C484.997 27.8546 485.232 28.1463 485.368 28.4865L486.745 31.9258L487.368 28.8073C487.451 28.3916 487.676 28.0174 488.004 27.7487C488.332 27.4799 488.743 27.3331 489.167 27.3333H496.5C496.771 27.3335 497.039 27.3938 497.284 27.5099C497.529 27.626 497.745 27.795 497.917 28.0047C498.089 28.2144 498.212 28.4596 498.278 28.7227C498.343 28.9858 498.35 29.2601 498.297 29.526L496.5 38.5166V53C496.5 53.9724 496.114 54.9051 495.426 55.5927C494.738 56.2803 493.806 56.6666 492.833 56.6666H469C468.028 56.6666 467.095 56.2803 466.407 55.5927C465.72 54.9051 465.333 53.9724 465.333 53V38.6871L461.799 29.845C461.687 29.5669 461.646 29.2657 461.678 28.9678C461.71 28.67 461.814 28.3845 461.982 28.1363V28.14ZM469 40.1666V53H485.5V40.1666H469ZM489.167 40.1666V53H492.833V40.1666H489.167ZM493.163 36.5L494.263 31H490.67L489.57 36.5H493.163ZM484.626 36.5L482.426 31H466.208L468.408 36.5H484.626ZM478.167 49.3333C478.167 48.8471 478.36 48.3808 478.704 48.0369C479.047 47.6931 479.514 47.5 480 47.5H481.833C482.32 47.5 482.786 47.6931 483.13 48.0369C483.474 48.3808 483.667 48.8471 483.667 49.3333C483.667 49.8195 483.474 50.2859 483.13 50.6297C482.786 50.9735 482.32 51.1666 481.833 51.1666H480C479.514 51.1666 479.047 50.9735 478.704 50.6297C478.36 50.2859 478.167 49.8195 478.167 49.3333Z" fill="#C6CDC3"/>
<path d="M300 40H440" stroke="#C6CDC3" stroke-width="5" stroke-linecap="round"/>
<circle cx="260" cy="40" r="37.5" stroke="#C6CDC3" stroke-width="5"/>
<path d="M249.938 49.875C248.47 49.875 247.312 51.0324 247.312 52.5C247.312 53.9676 248.47 55.125 249.938 55.125C251.405 55.125 252.562 53.9676 252.562 52.5C252.562 51.0324 251.405 49.875 249.938 49.875ZM272.938 49.875C271.47 49.875 270.312 51.0324 270.312 52.5C270.312 53.9676 271.47 55.125 272.938 55.125C274.405 55.125 275.562 53.9676 275.562 52.5C275.562 51.0324 274.405 49.875 272.938 49.875ZM267.438 50.2041C268.336 48.0377 270.451 46.5 272.938 46.5C275.651 46.5 277.922 48.3312 278.652 50.8125H279.875V42.6582L277.475 35.5H267.438V50.2041ZM248.75 37.875V41.25H239.625V37.875H248.75ZM251.625 32.125V35.5H238.188V32.125H251.625ZM283.25 54.1875H278.652C277.922 56.6688 275.651 58.5 272.938 58.5C270.224 58.5 267.953 56.6688 267.223 54.1875H255.652C254.922 56.6688 252.651 58.5 249.938 58.5C247.224 58.5 244.953 56.6688 244.223 54.1875H239.625V43.625H243V50.8125H244.223C244.953 48.3312 247.224 46.5 249.938 46.5C252.651 46.5 254.922 48.3312 255.652 50.8125H264.062V29.75H236.75V26.375H267.438V32.125H279.905L279.961 32.2998L280.271 33.2832L283.142 41.8945L283.232 42.1201L283.25 42.165V54.1875Z" fill="#C6CDC3" stroke="#C6CDC3" stroke-width="0.5"/>
<path d="M80 40H220" stroke="#C6CDC3" stroke-width="5" stroke-linecap="round"/>
<circle cx="40" cy="40" r="37.5" fill="#D1764F" stroke="#D1764F" stroke-width="5"/>
<path d="M48.1892 23H31.8108C29.8148 23 28.8176 23 28.0116 23.2771C27.252 23.5435 26.5647 23.9789 26.0029 24.5497C25.4412 25.1204 25.02 25.8111 24.7721 26.5682C24.5 27.3876 24.5 28.4008 24.5 30.4288V54.2351C24.5 55.6937 26.1964 56.4689 27.2693 55.4999C27.5704 55.2253 27.9651 55.0729 28.375 55.0729C28.7849 55.0729 29.1796 55.2253 29.4807 55.4999L30.3125 56.2513C30.8399 56.7326 31.5317 57 32.25 57C32.9683 57 33.6601 56.7326 34.1875 56.2513C34.7149 55.7699 35.4067 55.5025 36.125 55.5025C36.8433 55.5025 37.5351 55.7699 38.0625 56.2513C38.5899 56.7326 39.2817 57 40 57C40.7183 57 41.4101 56.7326 41.9375 56.2513C42.4649 55.7699 43.1567 55.5025 43.875 55.5025C44.5933 55.5025 45.2851 55.7699 45.8125 56.2513C46.3399 56.7326 47.0317 57 47.75 57C48.4683 57 49.1601 56.7326 49.6875 56.2513L50.5193 55.4999C50.8204 55.2253 51.2151 55.0729 51.625 55.0729C52.0349 55.0729 52.4296 55.2253 52.7307 55.4999C53.8036 56.4689 55.5 55.6937 55.5 54.2351V30.4288C55.5 28.4008 55.5 27.3859 55.2279 26.5699C54.9802 25.8124 54.5592 25.1214 53.9974 24.5504C53.4356 23.9794 52.7482 23.5437 51.9884 23.2771C51.1824 23 50.1852 23 48.1892 23Z" stroke="#FCFCF5" stroke-width="4"/>
<path d="M37.766 38.5106H47.4468M32.5532 38.5106H33.2979M32.5532 33.2979H33.2979M32.5532 43.7234H33.2979M37.766 33.2979H47.4468M37.766 43.7234H47.4468" stroke="#FCFCF5" stroke-width="4" stroke-linecap="round"/>
</svg>
