<svg width="742" height="80" viewBox="0 0 742 80" fill="none" xmlns="http://www.w3.org/2000/svg">
<circle cx="702" cy="40" r="37.5" fill="#D1764F" stroke="#D1764F" stroke-width="5"/>
<path d="M702 52.4687L711.437 58.1387C713.165 59.1778 715.28 57.6417 714.825 55.699L712.323 45.0366L720.669 37.8531C722.192 36.5429 721.374 34.058 719.373 33.8999L708.39 32.9737L704.092 22.8987C703.319 21.0689 700.681 21.0689 699.908 22.8987L695.61 32.9511L684.627 33.8773C682.626 34.0354 681.808 36.5203 683.331 37.8305L691.676 45.0141L689.175 55.6764C688.72 57.6191 690.835 59.1552 692.563 58.1161L702 52.4687Z" fill="#FCFCF5"/>
<path d="M520 40H662" stroke="#D1764F" stroke-width="5" stroke-linecap="round"/>
<circle cx="480" cy="40" r="37.5" stroke="#D1764F" stroke-width="5"/>
<path fill-rule="evenodd" clip-rule="evenodd" d="M461.982 28.1402C462.15 27.8919 462.376 27.6885 462.641 27.5479C462.905 27.4073 463.2 27.3336 463.5 27.3335H483.667C484.033 27.3337 484.391 27.4437 484.694 27.6492C484.997 27.8548 485.232 28.1465 485.368 28.4867L486.745 31.926L487.368 28.8075C487.451 28.3917 487.676 28.0176 488.004 27.7489C488.332 27.4801 488.743 27.3333 489.167 27.3335H496.5C496.771 27.3337 497.039 27.394 497.284 27.5101C497.529 27.6261 497.745 27.7951 497.917 28.0049C498.089 28.2146 498.212 28.4598 498.278 28.7229C498.343 28.9859 498.35 29.2603 498.297 29.5262L496.5 38.5168V53.0002C496.5 53.9726 496.114 54.9053 495.426 55.5929C494.738 56.2805 493.806 56.6668 492.833 56.6668H469C468.028 56.6668 467.095 56.2805 466.407 55.5929C465.72 54.9053 465.333 53.9726 465.333 53.0002V38.6873L461.799 29.8452C461.687 29.5671 461.646 29.2659 461.678 28.968C461.71 28.6701 461.814 28.3846 461.982 28.1365V28.1402ZM469 40.1668V53.0002H485.5V40.1668H469ZM489.167 40.1668V53.0002H492.833V40.1668H489.167ZM493.163 36.5002L494.263 31.0002H490.67L489.57 36.5002H493.163ZM484.626 36.5002L482.426 31.0002H466.208L468.408 36.5002H484.626ZM478.167 49.3335C478.167 48.8473 478.36 48.3809 478.704 48.0371C479.047 47.6933 479.514 47.5002 480 47.5002H481.833C482.32 47.5002 482.786 47.6933 483.13 48.0371C483.474 48.3809 483.667 48.8473 483.667 49.3335C483.667 49.8197 483.474 50.286 483.13 50.6299C482.786 50.9737 482.32 51.1668 481.833 51.1668H480C479.514 51.1668 479.047 50.9737 478.704 50.6299C478.36 50.286 478.167 49.8197 478.167 49.3335Z" fill="#D1764F"/>
<path d="M300 40H440" stroke="#D1764F" stroke-width="5" stroke-linecap="round"/>
<circle cx="260" cy="40" r="37.5" stroke="#D1764F" stroke-width="5"/>
<path d="M249.938 49.875C248.47 49.875 247.312 51.0324 247.312 52.5C247.312 53.9676 248.47 55.125 249.938 55.125C251.405 55.125 252.562 53.9676 252.562 52.5C252.562 51.0324 251.405 49.875 249.938 49.875ZM272.938 49.875C271.47 49.875 270.312 51.0324 270.312 52.5C270.312 53.9676 271.47 55.125 272.938 55.125C274.405 55.125 275.562 53.9676 275.562 52.5C275.562 51.0324 274.405 49.875 272.938 49.875ZM267.438 50.2041C268.336 48.0377 270.451 46.5 272.938 46.5C275.651 46.5 277.922 48.3312 278.652 50.8125H279.875V42.6582L277.475 35.5H267.438V50.2041ZM248.75 37.875V41.25H239.625V37.875H248.75ZM251.625 32.125V35.5H238.188V32.125H251.625ZM283.25 54.1875H278.652C277.922 56.6688 275.651 58.5 272.938 58.5C270.224 58.5 267.953 56.6688 267.223 54.1875H255.652C254.922 56.6688 252.651 58.5 249.938 58.5C247.224 58.5 244.953 56.6688 244.223 54.1875H239.625V43.625H243V50.8125H244.223C244.953 48.3312 247.224 46.5 249.938 46.5C252.651 46.5 254.922 48.3312 255.652 50.8125H264.062V29.75H236.75V26.375H267.438V32.125H279.905L279.961 32.2998L280.271 33.2832L283.142 41.8945L283.232 42.1201L283.25 42.165V54.1875Z" fill="#D1764F" stroke="#D1764F" stroke-width="0.5"/>
<path d="M80 40H220" stroke="#D1764F" stroke-width="5" stroke-linecap="round"/>
<path d="M48.1892 23H31.8108C29.8148 23 28.8176 23 28.0116 23.2771C27.252 23.5435 26.5647 23.9789 26.0029 24.5497C25.4412 25.1204 25.02 25.8111 24.7721 26.5682C24.5 27.3876 24.5 28.4008 24.5 30.4288V54.2351C24.5 55.6937 26.1964 56.4689 27.2693 55.4999C27.5704 55.2253 27.9651 55.0729 28.375 55.0729C28.7849 55.0729 29.1796 55.2253 29.4807 55.4999L30.3125 56.2513C30.8399 56.7326 31.5317 57 32.25 57C32.9683 57 33.6601 56.7326 34.1875 56.2513C34.7149 55.7699 35.4067 55.5025 36.125 55.5025C36.8433 55.5025 37.5351 55.7699 38.0625 56.2513C38.5899 56.7326 39.2817 57 40 57C40.7183 57 41.4101 56.7326 41.9375 56.2513C42.4649 55.7699 43.1567 55.5025 43.875 55.5025C44.5933 55.5025 45.2851 55.7699 45.8125 56.2513C46.3399 56.7326 47.0317 57 47.75 57C48.4683 57 49.1601 56.7326 49.6875 56.2513L50.5193 55.4999C50.8204 55.2253 51.2151 55.0729 51.625 55.0729C52.0349 55.0729 52.4296 55.2253 52.7307 55.4999C53.8036 56.4689 55.5 55.6937 55.5 54.2351V30.4288C55.5 28.4008 55.5 27.3859 55.2279 26.5699C54.9802 25.8124 54.5592 25.1214 53.9974 24.5504C53.4356 23.9794 52.7482 23.5437 51.9884 23.2771C51.1824 23 50.1852 23 48.1892 23Z" stroke="#D1764F" stroke-width="4"/>
<path d="M37.766 38.5106H47.4468M32.5532 38.5106H33.2979M32.5532 33.2979H33.2979M32.5532 43.7234H33.2979M37.766 33.2979H47.4468M37.766 43.7234H47.4468" stroke="#D1764F" stroke-width="4" stroke-linecap="round"/>
<circle cx="40" cy="40" r="37.5" stroke="#D1764F" stroke-width="5"/>
</svg>
