<svg width="22" height="22" viewBox="0 0 22 22" fill="none" xmlns="http://www.w3.org/2000/svg">
<path d="M6.41665 20.1666C5.91248 20.1666 5.48103 19.9873 5.12231 19.6286C4.76359 19.2698 4.58392 18.8381 4.58331 18.3333V9.16665C4.58331 8.66248 4.76298 8.23104 5.12231 7.87231C5.48165 7.51359 5.91309 7.33392 6.41665 7.33331H15.5833C16.0875 7.33331 16.5192 7.51298 16.8786 7.87231C17.2379 8.23165 17.4173 8.66309 17.4166 9.16665V18.3333C17.4166 18.8375 17.2373 19.2692 16.8786 19.6286C16.5198 19.9879 16.0881 20.1673 15.5833 20.1666H6.41665ZM10.0833 17.4166H11.9166V16.5H10.0833V17.4166ZM10.0833 15.5833H11.9166C11.9166 15.293 11.9894 15.0296 12.1348 14.7931C12.2803 14.5566 12.4367 14.3235 12.6041 14.0937C12.7875 13.834 12.9479 13.555 13.0854 13.2568C13.2229 12.9586 13.2916 12.6494 13.2916 12.3291C13.2916 11.7028 13.0701 11.172 12.6271 10.7369C12.184 10.3018 11.6416 10.0839 11 10.0833C10.3583 10.0827 9.81595 10.3006 9.3729 10.7369C8.92984 11.1732 8.70831 11.704 8.70831 12.3291C8.70831 12.65 8.78103 12.9555 8.92648 13.2458C9.07192 13.5361 9.22837 13.8111 9.39581 14.0708C9.56387 14.3153 9.72062 14.556 9.86606 14.7931C10.0115 15.0303 10.0839 15.2936 10.0833 15.5833ZM5.49998 5.95831C5.49998 5.57637 5.63381 5.25187 5.90148 4.98481C6.16915 4.71776 6.49365 4.58392 6.87498 4.58331H15.125C15.5069 4.58331 15.8317 4.71715 16.0994 4.98481C16.3671 5.25248 16.5006 5.57698 16.5 5.95831H5.49998ZM6.41665 3.20831C6.41665 2.82637 6.55048 2.50187 6.81815 2.23481C7.08581 1.96776 7.41031 1.83392 7.79165 1.83331H14.2083C14.5903 1.83331 14.9151 1.96715 15.1827 2.23481C15.4504 2.50248 15.5839 2.82698 15.5833 3.20831H6.41665Z" fill="#3E6137"/>
</svg>
