<svg width="25" height="25" viewBox="0 0 25 25" fill="none" xmlns="http://www.w3.org/2000/svg">
<path fill-rule="evenodd" clip-rule="evenodd" d="M1.04199 12.5003C1.04199 6.1722 6.1722 1.04199 12.5003 1.04199C18.8284 1.04199 23.9587 6.1722 23.9587 12.5003C23.9587 18.8284 18.8284 23.9587 12.5003 23.9587C6.1722 23.9587 1.04199 18.8284 1.04199 12.5003ZM12.5003 7.29199C12.5004 7.086 12.5615 6.88465 12.6759 6.71339C12.7904 6.54213 12.9531 6.40865 13.1434 6.32983C13.3337 6.251 13.5431 6.23038 13.7451 6.27055C13.9472 6.31073 14.1328 6.4099 14.2785 6.55553L18.4451 10.7222C18.6404 10.9175 18.7501 11.1824 18.7501 11.4587C18.7501 11.7349 18.6404 11.9998 18.4451 12.1951L14.2785 16.3618C14.1328 16.5074 13.9472 16.6066 13.7451 16.6468C13.5431 16.6869 13.3337 16.6663 13.1434 16.5875C12.9531 16.5087 12.7904 16.3752 12.6759 16.2039C12.5615 16.0327 12.5004 15.8313 12.5003 15.6253V14.6253C10.8014 14.7628 9.76595 15.2337 9.16178 15.6816C8.88093 15.8793 8.64196 16.1307 8.45866 16.4212C8.40575 16.5035 8.36472 16.593 8.33678 16.6868L8.33366 16.6951V16.693C8.33021 16.9693 8.21715 17.2329 8.01935 17.4258C7.82156 17.6187 7.55524 17.7251 7.27897 17.7217C7.0027 17.7182 6.73912 17.6052 6.54622 17.4074C6.35331 17.2096 6.24687 16.9433 6.25033 16.667C6.25033 13.8482 7.4347 11.7555 8.93053 10.3795C10.0368 9.36178 11.3441 8.7097 12.5003 8.45553V7.29199ZM13.542 12.5003C13.7543 12.5003 13.9615 12.5651 14.136 12.6861C14.3104 12.8071 14.4437 12.9785 14.518 13.1774L16.2357 11.4587L14.517 9.73991C14.4427 9.93862 14.3096 10.1099 14.1354 10.2309C13.9611 10.3519 13.7541 10.4168 13.542 10.417C12.8087 10.417 11.4889 10.8566 10.341 11.9128C9.91087 12.3089 9.53849 12.7633 9.2347 13.2628C10.316 12.8024 11.7264 12.5003 13.542 12.5003Z" fill="#7B8C7F"/>
</svg>
