<svg width="28" height="29" viewBox="0 0 28 29" fill="none" xmlns="http://www.w3.org/2000/svg">
<rect width="28" height="29" rx="5" fill="#C4D9B9"/>
<path opacity="0.16" d="M4 11.0415H23.3333L22.3244 22.1352C22.2698 22.7357 21.9928 23.294 21.5477 23.7007C21.1025 24.1073 20.5215 24.3329 19.9186 24.3332H7.41475C6.81184 24.3329 6.23079 24.1073 5.78567 23.7007C5.34055 23.294 5.06352 22.7357 5.00896 22.1352L4 11.0415Z" fill="black"/>
<path d="M4 11.0415H23.3333L22.3244 22.1352C22.2698 22.7357 21.9928 23.294 21.5477 23.7007C21.1025 24.1073 20.5215 24.3329 19.9186 24.3332H7.41475C6.81184 24.3329 6.23079 24.1073 5.78567 23.7007C5.34056 23.294 5.06352 22.7357 5.00896 22.1352L4 11.0415Z" stroke="black" stroke-width="2" stroke-linejoin="round"/>
<path d="M8.83333 13.4583V9.83333C8.83333 8.55145 9.34255 7.32208 10.249 6.41565C11.1554 5.50922 12.3848 5 13.6667 5C14.9485 5 16.1779 5.50922 17.0843 6.41565C17.9908 7.32208 18.5 8.55145 18.5 9.83333V13.4583" stroke="black" stroke-width="2" stroke-linecap="round"/>
</svg>
