<svg width="28" height="29" viewBox="0 0 28 29" fill="none" xmlns="http://www.w3.org/2000/svg">
<rect width="28" height="29" rx="5" fill="#C4D9B9"/>
<path d="M4.787 5.28021C4.88155 5.25229 4.98068 5.24329 5.07871 5.25372C5.17675 5.26415 5.27176 5.2938 5.35832 5.34098C5.44489 5.38816 5.5213 5.45195 5.58319 5.52869C5.64507 5.60543 5.69123 5.69362 5.719 5.78821L6.269 7.65021H20.924C22.764 7.65021 24.169 9.36721 23.639 11.1602L21.984 16.7602C21.632 17.9542 20.513 18.7502 19.269 18.7502H10.113C8.869 18.7502 7.751 17.9542 7.398 16.7602L4.281 6.21321C4.22454 6.02252 4.24613 5.81721 4.34102 5.64244C4.43591 5.46766 4.59633 5.33673 4.787 5.28021ZM8.25 22.5002C8.25 21.9035 8.48705 21.3312 8.90901 20.9092C9.33097 20.4873 9.90326 20.2502 10.5 20.2502C11.0967 20.2502 11.669 20.4873 12.091 20.9092C12.5129 21.3312 12.75 21.9035 12.75 22.5002C12.75 23.0969 12.5129 23.6692 12.091 24.0912C11.669 24.5132 11.0967 24.7502 10.5 24.7502C9.90326 24.7502 9.33097 24.5132 8.90901 24.0912C8.48705 23.6692 8.25 23.0969 8.25 22.5002ZM16.25 22.5002C16.25 22.2047 16.3082 21.9122 16.4213 21.6392C16.5343 21.3662 16.7001 21.1182 16.909 20.9092C17.1179 20.7003 17.366 20.5346 17.639 20.4215C17.9119 20.3084 18.2045 20.2502 18.5 20.2502C18.7955 20.2502 19.0881 20.3084 19.361 20.4215C19.634 20.5346 19.8821 20.7003 20.091 20.9092C20.2999 21.1182 20.4657 21.3662 20.5787 21.6392C20.6918 21.9122 20.75 22.2047 20.75 22.5002C20.75 23.0969 20.5129 23.6692 20.091 24.0912C19.669 24.5132 19.0967 24.7502 18.5 24.7502C17.9033 24.7502 17.331 24.5132 16.909 24.0912C16.4871 23.6692 16.25 23.0969 16.25 22.5002Z" fill="black"/>
</svg>
