<svg width="28" height="29" viewBox="0 0 28 29" fill="none" xmlns="http://www.w3.org/2000/svg">
<rect width="28" height="29" rx="5" fill="#C4D9B9"/>
<path d="M11.5 11.6666H16.5C16.721 11.6666 16.933 11.5788 17.0893 11.4225C17.2455 11.2662 17.3333 11.0543 17.3333 10.8332C17.3333 10.6122 17.2455 10.4003 17.0893 10.244C16.933 10.0877 16.721 9.99992 16.5 9.99992H11.5C11.279 9.99992 11.067 10.0877 10.9107 10.244C10.7545 10.4003 10.6667 10.6122 10.6667 10.8332C10.6667 11.0543 10.7545 11.2662 10.9107 11.4225C11.067 11.5788 11.279 11.6666 11.5 11.6666ZM11.8917 8.74992C11.9039 8.85155 11.9532 8.9451 12.0301 9.01272C12.1069 9.08035 12.206 9.11732 12.3083 9.11658H15.6667C15.7685 9.11555 15.8666 9.07796 15.9431 9.01066C16.0196 8.94336 16.0694 8.85083 16.0833 8.74992C16.2666 7.86412 16.6051 7.01773 17.0833 6.24992C17.1275 6.17543 17.1457 6.08841 17.1351 6.00247C17.1246 5.91653 17.0859 5.83651 17.025 5.77492C16.9747 5.70871 16.9058 5.65905 16.8271 5.63232C16.7484 5.60559 16.6635 5.60301 16.5833 5.62492L15.0333 6.29158C15.0073 6.30413 14.9789 6.31065 14.95 6.31065C14.9211 6.31065 14.8927 6.30413 14.8667 6.29158C14.815 6.27234 14.773 6.23338 14.75 6.18325L14.3833 5.25825C14.3513 5.18309 14.2979 5.119 14.2297 5.07395C14.1616 5.0289 14.0817 5.00488 14 5.00488C13.9183 5.00488 13.8384 5.0289 13.7702 5.07395C13.7021 5.119 13.6487 5.18309 13.6167 5.25825L13.25 6.18325C13.227 6.23338 13.185 6.27234 13.1333 6.29158C13.1073 6.30413 13.0789 6.31065 13.05 6.31065C13.0211 6.31065 12.9927 6.30413 12.9667 6.29158L11.4167 5.62492C11.3372 5.59277 11.2497 5.58592 11.1662 5.60531C11.0827 5.6247 11.0072 5.66937 10.95 5.73325C10.8891 5.79484 10.8504 5.87486 10.8398 5.9608C10.8293 6.04675 10.8475 6.13376 10.8917 6.20825C11.3744 6.98879 11.7131 7.84967 11.8917 8.74992ZM16.8667 12.5999C16.7807 12.5339 16.675 12.4987 16.5667 12.4999H11.4333C11.3249 12.4987 11.2193 12.5339 11.1333 12.5999C9.00833 14.2666 6.63333 17.0999 6.63333 19.5999C6.63333 23.1249 8.6 24.9999 14 24.9999C19.4 24.9999 21.3667 23.1249 21.3667 19.5999C21.3667 17.0999 19 14.2249 16.8667 12.5999ZM14.8333 21.7749C14.7848 21.7844 14.7409 21.8103 14.7091 21.8482C14.6772 21.8861 14.6593 21.9338 14.6583 21.9832V22.2916C14.6583 22.4573 14.5925 22.6163 14.4753 22.7335C14.3581 22.8507 14.1991 22.9166 14.0333 22.9166C13.8676 22.9166 13.7086 22.8507 13.5914 22.7335C13.4742 22.6163 13.4083 22.4573 13.4083 22.2916V22.0249C13.4083 21.9697 13.3864 21.9167 13.3473 21.8776C13.3082 21.8385 13.2553 21.8166 13.2 21.8166H12.7083C12.5426 21.8166 12.3836 21.7507 12.2664 21.6335C12.1492 21.5163 12.0833 21.3573 12.0833 21.1916C12.0833 21.0258 12.1492 20.8669 12.2664 20.7496C12.3836 20.6324 12.5426 20.5666 12.7083 20.5666H14.5C14.633 20.5712 14.7633 20.5281 14.8673 20.4451C14.9714 20.3621 15.0424 20.2447 15.0675 20.114C15.0926 19.9833 15.0703 19.848 15.0044 19.7323C14.9386 19.6167 14.8336 19.5283 14.7083 19.4832L12.8917 18.7582C12.5255 18.6211 12.214 18.3685 12.0042 18.0385C11.7944 17.7086 11.6977 17.3193 11.7287 16.9296C11.7598 16.5398 11.9169 16.1708 12.1764 15.8783C12.4358 15.5858 12.7834 15.3857 13.1667 15.3082C13.2152 15.2987 13.2591 15.2729 13.2909 15.235C13.3228 15.1971 13.3407 15.1494 13.3417 15.0999V14.7916C13.3417 14.6258 13.4075 14.4669 13.5247 14.3496C13.6419 14.2324 13.8009 14.1666 13.9667 14.1666C14.1324 14.1666 14.2914 14.2324 14.4086 14.3496C14.5258 14.4669 14.5917 14.6258 14.5917 14.7916V15.0582C14.5917 15.1135 14.6136 15.1665 14.6527 15.2056C14.6918 15.2446 14.7447 15.2666 14.8 15.2666H15.2917C15.4574 15.2666 15.6164 15.3324 15.7336 15.4496C15.8508 15.5669 15.9167 15.7258 15.9167 15.8916C15.9167 16.0573 15.8508 16.2163 15.7336 16.3335C15.6164 16.4507 15.4574 16.5166 15.2917 16.5166H13.5333C13.4003 16.512 13.2701 16.5551 13.166 16.6381C13.0619 16.721 12.991 16.8385 12.9658 16.9691C12.9407 17.0998 12.9631 17.2352 13.0289 17.3509C13.0948 17.4665 13.1998 17.5548 13.325 17.5999L15.1417 18.3249C15.5077 18.4648 15.8181 18.7204 16.0256 19.0528C16.2332 19.3851 16.3267 19.7762 16.2918 20.1665C16.2569 20.5568 16.0956 20.9251 15.8324 21.2154C15.5691 21.5056 15.2184 21.7021 14.8333 21.7749Z" fill="black"/>
</svg>
