<svg width="24" height="24" viewBox="0 0 24 24" fill="none" xmlns="http://www.w3.org/2000/svg">
<path d="M12 17.611C12.2405 17.7712 12.491 17.9159 12.75 18.0441V21.75C12.75 21.9489 12.671 22.1397 12.5304 22.2803C12.3897 22.421 12.1989 22.5 12 22.5C11.8011 22.5 11.6103 22.421 11.4697 22.2803C11.329 22.1397 11.25 21.9489 11.25 21.75V18.0441C11.509 17.9159 11.7596 17.7712 12 17.611ZM18.5719 5.86783C18.0294 4.57244 17.1161 3.46627 15.9468 2.68831C14.7775 1.91035 13.4044 1.4953 12 1.4953C10.5956 1.4953 9.2225 1.91035 8.05323 2.68831C6.88397 3.46627 5.97069 4.57244 5.42815 5.86783C4.25647 6.40337 3.26333 7.26427 2.56693 8.34809C1.87054 9.43191 1.50021 10.693 1.50002 11.9813C1.49065 15.5625 4.50002 18.6563 8.07565 18.75C9.17542 18.7762 10.265 18.5339 11.25 18.0441V14.7131L7.1644 12.6713C6.98637 12.5823 6.851 12.4262 6.78805 12.2373C6.72511 12.0485 6.73976 11.8424 6.82877 11.6644C6.91779 11.4864 7.07387 11.351 7.2627 11.2881C7.45153 11.2251 7.65762 11.2398 7.83565 11.3288L11.25 13.0369V8.25002C11.25 8.05111 11.329 7.86034 11.4697 7.71969C11.6103 7.57904 11.8011 7.50002 12 7.50002C12.1989 7.50002 12.3897 7.57904 12.5304 7.71969C12.671 7.86034 12.75 8.05111 12.75 8.25002V10.7869L16.1644 9.07877C16.2525 9.03469 16.3485 9.00841 16.4468 9.00143C16.5451 8.99444 16.6438 9.00688 16.7373 9.03805C16.8308 9.06922 16.9173 9.11849 16.9917 9.18307C17.0662 9.24764 17.1272 9.32624 17.1713 9.41439C17.2153 9.50254 17.2416 9.59851 17.2486 9.69682C17.2556 9.79513 17.2432 9.89384 17.212 9.98734C17.1808 10.0808 17.1315 10.1673 17.067 10.2417C17.0024 10.3162 16.9238 10.3772 16.8356 10.4213L12.75 12.4631V18.0441C13.6824 18.507 14.709 18.7485 15.75 18.75H15.9206C19.5 18.6563 22.5103 15.5625 22.5 11.9813C22.4998 10.693 22.1295 9.43191 21.4331 8.34809C20.7367 7.26427 19.7436 6.40337 18.5719 5.86783Z" fill="#3E6137"/>
</svg>
